<svg xmlns="http://www.w3.org/2000/svg" viewBox="0 0 1179.3 289.1" enable-background="new 0 0 1179.3 289.1"><path d="M165.9 288.8l-.3-283.9H86.1v72.2h-.2l-2.1.2-2.3.3-2.4.3-2.5.3-2.6.3-5.3.7-5.5.7-5.6.9-5.6.8-5.3 1-5 1-2.3.5-2.2.5-2 .5-1.9.5-1.7.6-1.5.5-5.5 2.2L22 90l-2.6 1.2-2.5 1.3-2.4 1.4-2.3 1.5-2.1 1.9-2 2-.9 1.1-.9 1.2-1.5 2.6-.8 1.3-.7 1.5-.5 1.6-.6 1.7-.5 1.8-.8 4-.3 2.1-.2 2.2-.2 2.4-.2 62.3v69.3l.5 2.3.5 2.1.6 2 .7 2 1.6 3.6.9 1.5 1 1.6 1 1.5 1.1 1.4 1.1 1.3 3.5 3.5 2.4 1.9 2.5 1.7 2.4 1.5 2.3 1.2 2.2 1 2.1.9 1.8.7 1.6.6 1.2.4 1.2.3 1.3.2 1.4.3 1.4.2 3.2.3 3.3.3 3.5.1 7.2.2h6.8l3.2-.1 2.8-.1 2.5-.1h1.1l1-.1h1.6l.5-.1h.8L86 250l.1-1.6v40.4h79.8zM86 220.2l-.2.4-.2.4-.3.3-.2.4-.4.3-.4.3-.3.2-.4.2-.4.1-.2.2-.5.1-.4.1h-.9l-.4-.1-.4-.1-.4-.1-.4-.1-.3-.2-.3-.2-.4-.3-.4-.3-.3-.4-.2-.3-.2-.4-.2-.4-.1-.4-.1-.5-.1-.4v-79.7l.1-.5.1-.4.1-.5.2-.4.2-.3.2-.4.3-.4.4-.3.4-.3.3-.2.3-.2.4-.1.4-.1.4-.1h.4l.5-.1.4.1h.4l.5.1.4.1.4.1.4.2.3.2.4.3.4.3.2.4.3.4.2.3v.5l.1.5.1.4v.5l.1.4v78.7l-.1.5v.4l-.1.5-.1.3z"/><path fill="#C4122F" d="M193.3 4.6v72.5h-.1l-2.1.2-2.3.3-2.4.3-2.4.3-2.6.3-5.4.7-5.5.7-5.6.9-5.6.8-5.3 1-5 1-2.3.5-2.2.5-2 .5-1.9.5-1.7.6-1.5.5-5.5 2.2-2.7 1.1-2.6 1.2-2.4 1.3-2.4 1.4-2.3 1.5-2.1 1.9-2 2-.9 1.1-.9 1.2-1.6 2.6-.7 1.4-.7 1.4-.6 1.6-.6 1.7-.5 1.8-.9 4-.3 2.1-.2 2.2-.2 2.4-.1 62.4v69.3l.4 2.3.6 2.1.6 2 .7 2 1.6 3.6.9 1.5 1 1.6 1 1.5 1.1 1.4 1.1 1.3 3.5 3.5 2.4 1.9 2.4 1.7 2.4 1.5 2.3 1.2 2.2 1 2.1.9 1.8.7 1.6.6 1.2.4 1.2.3 1.3.2 1.4.3 1.4.2 3.2.3 3.3.3 3.5.1 7.1.2h6.8l3.2-.1 2.8-.1 2.5-.1h1.1l1-.1h1.6l.5-.1h.8l12.3-38.6v37.5H273V4.6h-79.7zm.5 213.4l-.1.5v.5l-.1.4-.1.5-.1.4-.2.4-.2.4-.3.3-.2.4-.3.3-.4.3-.3.2-.3.2-.5.1-.4.1-.4.1-.4.1h-1l-.4-.1-.4-.1-.4-.1-.4-.1-.4-.2-.3-.2-.2-.4-.4-.3-.3-.4-.2-.3-.2-.4-.2-.4-.1-.4-.1-.5v-.4l-.1-.5v-78.7l.1-.4v-.5l.1-.4.1-.5.2-.4.2-.3.2-.4.3-.4.4-.3.3-.3.3-.2.4-.2.4-.1.4-.1.4-.1h.4l.5-.1.4.1h.4l.4.1.4.1.5.1.3.2.3.2.4.3.3.3.2.4.3.4.2.3.2.4.1.5.1.4.1.5v.4l.1.5V218z"/><path d="M390.6 161.5h36.3v20.7h-36.3zM408.8 171.9"/><path d="M673.7 161.5h36.1v20.7h-36.1zM691.7 171.9"/><path d="M572.4 28h-37.5v71l-.1 2-.2 1.5-.3 1.4-.5 1.1-.7.9-1 .7-1.1.3-1.4.1-1.5-.1-1.1-.3-.8-.7-.9-.9-.4-1.1-.4-1.4-.1-1.5-.2-2V28h-38.8v73.7l.1 3.5.3 3.1.7 2.9.7 2.8 1.2 2.8 1.2 2.4 1.6 2.1 1.7 2.1 1.6 1.7 2.2 1.4 2.2 1.4 2.4 1.3 2.5.7 2.6.6 2.8.4 2.9.1 3.1-.1 3.1-.4 2.8-.6 3.1-.7 3.1-1 3-1.1 3.1-1.1 2.9-1.6v6.6h36.1zM674.4 0h37.5v131h-37.5zM693.1 65.5"/><path d="M390.6 188.7h36.3v99.4h-36.3zM408.8 238.4"/><path d="M519.4 264.9v-14.2l-.5-4.6-.5-2-.5-1.8-.9-1.7-.9-1.7-1-1.4-1.4-1.6-1.6-1.2-1.7-1.3-1.8-1.3-2.1-1.1-2.3-1.3-2.5-1.1-2.8-1.2-7.7-2.6-7.9-2.5-1.3-.4-1.4-.6-2.1-.8-1.8-.9-1.4-.8-1.1-1.1-.6-1.3-.3-.6-.3-1.7v-.9l.2-1.3.3-1.1.4-.9.7-.7.8-.5.9-.5.8-.3h1l1.4.2 1 .4 1 .6.7.7.5 1 .5 1.1.1 1.3v3.9h36.1v-9.4l-.3-2.8-.2-2.4-.5-2.3-.7-2.1-.9-1.8-1.2-1.6-1.1-1.2-1.5-1.3-1.7-1-2.1-.7-2.3-.7-2.5-.6-2.8-.2-3.1-.3h-41.6l-3 .3-2.8.2-2.5.6-2.3.7-1.8.7-2 1-1.4 1.3-1.4 1.2-1.3 1.6-.8 1.8-.7 2.1-.7 2.3-.4 2.4-.2 2.8-.1 2.9V222l.3 2.1.3 2 .4 2 .5 1.6 1.6 3 1 1.4 1.1 1.3 1.1 1 1.4 1.1 1.6 1 3.5 1.6 2 .8 2.1.8 11.1 3.6 10.8 4 1.8.5 1.6.7 1.4 1 1 .9.8 1.2.6 1.3.4 1.7.1 1.8v4.4l-.2 1.7-.3 1.2-.6 1.2-.7.8-.8.4-1.2.4-1.4.2-.8-.2-.9-.4-.7-.4-.5-.8-.3-1.2-.3-1.2-.3-1.7v-9.6h-37.5v14.6l.3 3 .3 2.5.5 2.3.7 2.1 1 2 1 1.5 1.3 1.5 1.4 1.3 1.8 1.1 2 1 2.2.9 2.7.4 2.8.4 3.1.2 3.5.1H495l3.5-.1 3.1-.2 2.8-.4 2.5-.4 2.3-.9 2.1-1 1.7-1.1 1.5-1.3 1.1-1.5 1.2-1.5.9-2 .7-2.1.5-2.3.2-2.5.3-3zM530.8 207.9v59.9l.3 3 .3 2.5.4 2.3.7 2.1 1 2 1.1 1.5 1.1 1.5 1.6 1.3 1.7 1.1 1.9 1 2.4.9 2.6.4 2.8.4 3.1.2 3.5.1h27.1v-19.4h-8.7l-1.8-.3-1.6-.3-1.1-.4-1-.7-.7-1-.4-1.1-.1-1.3v-55.7h15.4v-19.2H567v-27.2h-36.2v27.2h-9.1v19.2zM588.2 288.1h36.1v-71.6l.3-1.5.3-1.4.5-1 .7-.9 1-.5 1-.4 1.4-.2 1.3.2 1.1.4 1 .5.7.9.4 1 .3 1.4.3 1.5v10.9h34.9v-10.3l-.2-3.5-.1-3.4-.6-3.1-.7-2.8-1-2.7-1-2.4-1.4-2.2-1.5-2.1-1.6-1.7-1.8-1.6-2.1-1.2-2.1-1.2-2.4-.8-2.5-.6-2.7-.2-2.8-.2-2.8.2-2.8.2-2.7.6-2.7.8-2.8 1.2-2.7 1.2-2.6 1.7-2.8 1.7v-6.3h-34.9zM673.7 188.7h36.1v99.4h-36.1zM691.7 238.4"/><path d="M801.8 213.6l-.3-3.4-.6-3.1-.6-2.8-1-2.7-1.3-2.4-1.3-2.2-1.5-2.1-1.7-1.7-2-1.5-2.1-1.3-2.2-1.1-2.5-.8-2.8-.6-2.8-.3-3.1-.1-21.9.1v-26h-36.3v126.5h34.9v-6.5l5.8 2.7 2.8 1.1 2.7 1 2.8.6 3 .7 3.1.3 3.2.1 3.1-.1 2.8-.4 2.8-.6 2.5-.7 2.2-1.1 2.1-1.3 2-1.4 1.7-1.8 1.5-1.8 1.3-2.1 1.3-2.4 1-2.5.6-2.7.6-3 .3-3.1.1-3.4v-42.6l-.2-3.5zm-37.3 45.2l-.3 1.7-.4 1.3-.6 1.1-.7 1-.8.6-1.1.3-1.4.1-1.3-.1-1.1-.3-1-.6-.6-1-.6-1.1-.3-1.3-.3-1.7V216.5l.3-1.6.3-1.4.6-1 .6-.8 1-.6 1.1-.4 1.3-.1 1.4.1 1.1.4.8.6.7.8.6 1 .4 1.4.3 1.6v42.3zM893 188.7h-36.3v70.1l-.3 1.7-.2 1.3-.6 1.1-.6 1-.9.6-1.2.2-1.2.2-1.4-.2-1.2-.2-.8-.6-.7-1-.6-1.1-.4-1.3-.3-1.7v-70.1h-37.4v71l.2 3.4.4 3.1.5 2.9.8 2.7.9 2.5 1.3 2.4 1.4 2.1 1.7 1.8 1.7 1.9 2.1 1.4 2.1 1.2 2.1 1.2 2.5.7 2.7.5 2.7.5 2.8.1 2.9-.1 2.9-.3 5.9-1.3 2.8-1 2.9-1.1 3-1.3 2.9-1.4v6.5H893zM904.5 207.9v59.9l.3 3 .4 2.5.5 2.3.7 2.1.8 2 1.1 1.5 1.3 1.5 1.5 1.3 1.9 1.1 1.8 1 2.2.9 2.6.4 2.9.4 3.1.2 3.4.1h27.3v-19.4h-8.7l-2-.3-1.4-.3-1.3-.4-1-.7-.5-1-.5-1.1-.1-1.3v-55.7h15.5v-19.2h-15.5v-27.2h-36.3v27.2h-9v19.2zM962 188.7h36.3v99.4H962zM980.2 238.4"/><path d="M962 161.5h36.3v20.7H962zM980.2 171.9"/><path d="M1088.9 204.9l-.4-2.4-.4-2.2-.7-2.1-1-1.8-1-1.5-1.3-1.3-1.5-1.3-1.8-1-2-.7-2.3-.7-2.7-.6-2.8-.3-3.1-.3H1026l-3.1.3-2.8.3-2.5.6-2.3.7-2.1.7-1.7 1-1.5 1.3-1.1 1.3-1.1 1.5-1 1.8-.7 2.1-.4 2.2-.3 2.4-.3 2.8v60.1l.3 2.9.3 2.5.4 2.3.7 2.1 1 2 1.1 1.5 1.1 1.5 1.5 1.3 1.7 1.1 2.1 1 2.3.8 2.5.4 2.8.4 3.1.1 3.5.1h34.9l3.5-.1 3.1-.1 2.8-.4 2.7-.4 2.3-.8 2-1 1.8-1.1 1.5-1.3 1.3-1.5 1-1.5 1-2 .7-2.1.4-2.3.4-2.5.3-2.9v-60.2l-.3-2.7zm-37.4 57.9l-.3 1.7-.3 1.3-.4 1.1-.7.8-1 .4-1.1.4-1.3.1-1-.1-.8-.4-.6-.4-.6-.8-.4-1.1-.3-1.3-.3-1.7V213.1l.3-1.3.3-1.1.4-1 .6-.7.6-.6.8-.4 1-.1 1.3.1 1.1.4 1 .6.7.7.4 1 .3 1.1.3 1.3v49.7zM1096.6 288.1h36.3v-71.6l.2-1.5.3-1.4.6-1 .6-.9.9-.5 1.2-.4 1.2-.2 1.4.2 1.2.4.8.5.7.9.6 1 .4 1.4.3 1.5v71.6h36v-71l-.2-3.5-.1-3.4-.6-3.1-.7-2.8-1-2.7-1-2.4-1.4-2.2-1.5-2.1-1.6-1.7-1.8-1.6-2.1-1.2-2.1-1.2-2.4-.8-2.5-.6-2.7-.2-2.8-.2-3.2.2-3.1.2-3 .6-2.8.8-2.7 1.2-2.8 1.2-2.9 1.7-2.8 1.7v-6.3h-34.9zM345.6 0v26.4l-21.4.3-3.2.1-2.8.3-2.8.6-2.5 1-2.5 1.1-2.1 1.3-2 1.7-1.8 1.8-1.5 2.1-1.5 2.4-1 2.5-1 2.7-.8 3-.4 3.1-.4 3.5-.1 3.7v44.2l.1 3.5.4 3.1.4 3 .8 2.8 1 2.8 1 2.4 1.5 2.1 1.5 2.1 1.8 1.7 2 1.4 2.1 1.4 2.5 1.3 2.5.7 2.8.6 2.8.4 3.2.1 3.1-.1 3-.4 3-.6 3-.7 2.8-1 3-1.1 2.5-1.1 2.5-1.5v6.6h37.4V0h-38.9zm0 99v2l-.3 1.5-.3 1.4-.4 1.1-.8.8-.8.7-1.1.3-.7.1h-.7l-1.1-.1-.8-.3-1-.7-.8-.8-.7-1.1-.4-1.4-.3-1.5-.1-1V58.9l.1-1.8.3-1.7.4-1.4.7-1.1.8-1 1-.6.8-.4 1.1-.1h.7l.7.1 1.1.4.8.6.8 1 .4 1.1.3 1.4.3 1.7V99zM477.3 47.7v-2.8l-.4-2.5-.4-2.3-.7-2.3-1-1.7-1.1-1.8-1.3-1.3-1.7-1.3-1.7-1.3-2-.6-2.4-.7-2.7-.6-2.8-.4-3.4-.1-3.7-.1h-36.1l-3.4.1-3.4.1-3 .4-2.7.6-2.3.7-2.1.6-2 1.3-1.5 1.3-1.3 1.3-1 1.8-1 1.7-.8 2.3-.4 2.3-.4 2.5-.1 2.8-.1 3.1V107l.1 3.2.1 2.8.4 2.7.4 2.4.8 2.1 1 2 1 1.8 1.3 1.5 1.5 1.3 2 1.1 2.1 1.1 2.3.7 2.7.6 3 .3 3.4.3 1.5.1h39.9l1.7-.1 3.4-.3 2.8-.3 2.7-.6 2.4-.7 2-1.1 1.7-1.1 1.7-1.3 1.3-1.5 1.1-1.8 1-2 .7-2.1.4-2.4.4-2.7v-2.8l.1-3.2V47.7zm-38.6 55.4l-.1 1.8-.1 1.7-.3 1.3-.6 1.3-.8.8-.8.6-1.1.3-.7.1h-.7l-1.1-.1-.6-.3-.8-.6-.4-.8-.6-1.3-.3-1.3-.1-1.7V53.3l.4-2.4 1-1.7.8-.4.6-.4 1.1-.1 1.4.1 1.1.4.8.4.8.8.6.8.3 1.3.1 1.1.1 1.5v48.4zM668.3 53.9l-.4-3.5-.6-3.1-.7-3-.8-2.7-1.3-2.5-1.4-2.4-1.5-2.1-1.8-1.8-2.1-1.7-2.1-1.3-2.4-1.1-2.7-1-2.8-.6-2.8-.3-3.2-.1-22.7-.1V0h-37.5v131h36.3v-6.6l3 1.5 2.8 1.1 2.8 1.1 2.8 1 3 .7 3 .6 3.1.4 3.5.1 3.2-.1 2.8-.4 2.8-.6 2.7-.7 2.4-1.3 2.1-1.4 2.1-1.4 1.8-1.7 1.5-2.1 1.4-2.1 1.3-2.4.8-2.8.7-2.8.6-3 .4-3.1.1-3.5v-44l-.2-3.6zM629.7 99l-.1 2-.1 1.5-.3 1.4-.7 1.1-.7.8-.8.7-1.3.3-1.3.1h-.7l-.7-.1-1.3-.3-.7-.7-.8-.8-.6-1.1-.3-1.4-.3-1.5V57.1l.3-1.7.3-1.4.6-1.1.8-1 .7-.6 1.3-.4.7-.1h1.4l.6.1 1.3.4.8.6.7 1 .7 1.1.3 1.4.1 1.7.1 1.8V99zM925.8 0v26.6l-21.4.1-3.2.1-2.8.3-2.8.6-2.7 1-2.4 1.1-2.1 1.3-2.1 1.7-1.8 1.8-1.6 2.1-1.4 2.4-1.1 2.5-1 2.7-.8 3-.4 3.1-.4 3.5V105.3l.4 3.1.4 3 .8 2.8 1 2.8 1.1 2.4 1.4 2.1 1.6 2.1 1.8 1.7 2.1 1.4 2.1 1.4 2.4 1.3 2.7.7 2.8.6 2.8.4 3.2.1 2.9-.1 3.1-.4 2.9-.6 2.8-.7 3-1 2.8-1.1 2.7-1.1 2.5-1.5v6.6h37.3V0h-38.6zm0 58.9V101l-.1 1.5-.4 1.4-.6 1.1-.8.8-.8.7-1.1.3-1.4.1-1.1-.1-.8-.3-.8-.7-1-.8-.4-1.1-.6-1.4-.4-1.5V57.1l.4-1.7.6-1.4.4-1.1 1-1 .8-.6.8-.4 1.1-.1h.7l.7.1 1.1.4.8.6.8 1 .6 1.1.4 1.4.1 1.7v1.8zM808.1 44.9l-.4-2.5-.6-2.3-.6-2.3-1-1.7-1.1-1.8-1.3-1.3-1.7-1.3-1.7-1.3-2.1-.6-2.3-.7-2.7-.6-2.8-.4-3.4-.1-3.7-.1h-36.1l-3.5.1-3.4.1-3 .4-2.5.6-2.3.7-2.1.6-2 1.3-1.5 1.3-1.3 1.3-1.1 1.8-.8 1.7-.8 2.3-.4 2.3-.4 2.5-.1 2.8-.1 3.1V107l.1 3.2.1 2.8.4 2.7.4 2.4.8 2.1.8 2 1.1 1.8 1.3 1.5 1.5 1.3 2 1.1 2.1 1.1 2.3.7 2.5.6 3 .3 3.4.3 1.7.1h39.8l1.8-.1 3.4-.3 2.8-.3 2.7-.6 2.3-.7 2.1-1.1 1.7-1.1 1.7-1.3 1.3-1.5 1.1-1.8 1-2 .6-2.1.6-2.4.4-2.7.1-2.8V89.7h-38.7v13.4l-.1 1.8-.1 1.7-.4 1.3-.4 1.3-.8.8-.8.6-1.3.3-.6.1h-.7l-1.1-.1-.7-.3-.7-.6-.4-.8-.6-1.3-.3-1.3-.1-1.7V81.7h47.9v-34l-.2-2.8zM771 64.3h-12v-13l.4-1.4.7-1 .6-1 1-.6 1.1-.4 1.4-.1 1.4.1 1.4.4 1.1.6.8 1 .8 1 .6 1.4.4 1.7.1.8v10.5zM343.5 161.5v26l-20.5-.1-3.2.1-2.8.3-2.7.6-2.5.8-2.2 1.1-2.3 1.3-1.8 1.5-1.7 1.7-1.5 2.1-1.4 2.2-1.1 2.4-1 2.7-.7 2.8-.6 3.1-.1 3.4-.1 3.5v42.6l.1 3.4.1 3.1.6 3 .7 2.7 1 2.5 1.1 2.4 1.4 2.1 1.5 1.8 1.7 1.8 1.8 1.4 2.3 1.3 2.2 1.1 2.5.7 2.7.6 2.8.4 3.2.1 2.8-.1 2.7-.3 2.7-.4 2.5-.6 2.5-.8 2.7-1 2.4-1.1 2.4-1.4.1 5.8h37.1V161.5h-37.4zm-1.1 99.1v2l-.3 1.5-.3 1.4-.4 1.1-.8.8-.8.7-1.1.3-.7.1h-.7l-1.1-.1-.8-.3-1-.7-.8-.8-.7-1.1-.4-1.4-.3-1.5-.1-1v-41.1l.1-1.8.3-1.7.4-1.4.7-1.1.8-1 1-.6.8-.4 1.1-.1h.7l.7.1 1.1.4.8.6.8 1 .4 1.1.3 1.4.3 1.7v41.9z"/></svg>